<svg xmlns="http://www.w3.org/2000/svg" viewBox="0 0 96 96" role="img" aria-labelledby="title">
<title>SkillConnect logo</title>
<g fill="none" stroke="#ed1462" stroke-width="5" stroke-linecap="round" stroke-linejoin="round">
<path d="M9 62c12-2 24 2 35 12V43c-10-9-22-12-35-9v28Z"/>
<path d="M87 62c-12-2-24 2-35 12V43c10-9 22-12 35-9v28Z"/>
<path d="M48 80V45"/>
</g>
<g fill="#ed1462">
<circle cx="48" cy="18" r="8"/>
<path d="M30 36c2-10 9-15 18-15s16 5 18 15c-8 1-13 4-18 9-5-5-10-8-18-9Z"/>
</g>
</svg>